<svg width="512" height="512" viewBox="0 0 512 512" fill="none" xmlns="http://www.w3.org/2000/svg">
  <!-- Background circle -->
  <circle cx="256" cy="256" r="240" fill="#3b82f6"/>
  
  <!-- Calendar base -->
  <rect x="128" y="176" width="256" height="224" rx="16" fill="white"/>
  
  <!-- Calendar header -->
  <rect x="128" y="176" width="256" height="64" rx="16" fill="#1e40af"/>
  
  <!-- Calendar rings -->
  <circle cx="192" cy="208" r="8" fill="white"/>
  <circle cx="320" cy="208" r="8" fill="white"/>
  
  <!-- Calendar grid lines -->
  <line x1="144" y1="256" x2="368" y2="256" stroke="#e5e7eb" stroke-width="4"/>
  <line x1="144" y1="304" x2="368" y2="304" stroke="#e5e7eb" stroke-width="4"/>
  <line x1="144" y1="352" x2="368" y2="352" stroke="#e5e7eb" stroke-width="4"/>
  
  <!-- Vertical grid lines -->
  <line x1="192" y1="240" x2="192" y2="384" stroke="#e5e7eb" stroke-width="4"/>
  <line x1="240" y1="240" x2="240" y2="384" stroke="#e5e7eb" stroke-width="4"/>
  <line x1="288" y1="240" x2="288" y2="384" stroke="#e5e7eb" stroke-width="4"/>
  <line x1="336" y1="240" x2="336" y2="384" stroke="#e5e7eb" stroke-width="4"/>
  
  <!-- Event dots -->
  <circle cx="192" cy="280" r="4" fill="#10b981"/>
  <circle cx="240" cy="320" r="4" fill="#f59e0b"/>
  <circle cx="288" cy="280" r="4" fill="#ef4444"/>
  <circle cx="336" cy="368" r="4" fill="#8b5cf6"/>
</svg>
